<?xml version="1.0" encoding="UTF-8"?>
<svg width="15px" height="15px" viewBox="0 0 16 16" version="1.1" xmlns="http://www.w3.org/2000/svg" xmlns:xlink="http://www.w3.org/1999/xlink">
    <!-- Generator: Sketch 47.1 (45422) - http://www.bohemiancoding.com/sketch -->
    <title>Search</title>
    <desc>Created with Sketch.</desc>
    <defs></defs>
    <g id="Admin-screens" stroke="none" stroke-width="1" fill="none" fill-rule="evenodd">
        <g id="Icons" transform="translate(-357.000000, -16.000000)" fill="#878787">
            <path d="M369.261235,26.7935529 L368.487978,26.7935529 L368.214381,26.529231 C370.446605,23.9287447 370.223909,20.0288728 367.710169,17.6993967 C365.196428,15.3699207 361.290909,15.4441884 358.867549,17.8675487 C356.444188,20.290909 356.369921,24.196428 358.699397,26.7101687 C361.028873,29.2239093 364.928745,29.4466048 367.529231,27.2143813 L367.793553,27.4879777 L367.793553,28.2612354 L371.542751,32.0011593 L373,30.5439106 L369.261235,26.7947123 L369.261235,26.7947123 L369.261235,26.7935529 Z M363.391665,26.9859979 C361.508474,26.9859978 359.810735,25.8515289 359.090178,24.1116422 C358.36962,22.3717555 358.768161,20.3691321 360.099944,19.0376807 C361.431727,17.7062292 363.43445,17.308187 365.174157,18.029178 C366.913864,18.750169 368.04791,20.4481897 368.047441,22.3313809 C368.048983,23.5665349 367.558923,24.7515267 366.685427,25.6248044 C365.811932,26.4980821 364.626818,26.987847 363.391665,26.9859979 L363.391665,26.9859979 Z" id="Search"></path>
        </g>
    </g>
</svg>
