<?xml version="1.0" encoding="UTF-8"?>
<svg width="12px" height="12px" viewBox="0 0 12 12" version="1.1" xmlns="http://www.w3.org/2000/svg" xmlns:xlink="http://www.w3.org/1999/xlink">
    <!-- Generator: Sketch 49.3 (51167) - http://www.bohemiancoding.com/sketch -->
    <title>icons/grey/people-group</title>
    <desc>Created with Sketch.</desc>
    <defs></defs>
    <g id="Symbols" stroke="none" stroke-width="1" fill="none" fill-rule="evenodd">
        <g id="Condition" transform="translate(-259.000000, -220.000000)" fill="#888888">
            <g id="Group-4" transform="translate(43.000000, 214.000000)">
                <g id="icons/grey/people-group" transform="translate(216.000000, 6.000000)">
                    <g id="users" transform="translate(0.500000, 1.000000)">
                        <path d="M11.5,10 C11.5,10.2761424 11.2761424,10.5 11,10.5 C10.7238576,10.5 10.5,10.2761424 10.5,10 L10.5,9.1875 C10.5,8.14095666 9.43821434,7.20272424 7.97075093,7.03059546 C7.69648884,6.99842539 7.50023447,6.75001303 7.53240454,6.47575093 C7.56457461,6.20148884 7.81298697,6.00523447 8.08724907,6.03740454 C10.0156053,6.26359459 11.5,7.57525971 11.5,9.1875 L11.5,10 Z" id="Shape" fill-rule="nonzero"></path>
                        <path d="M7.5,10 C7.5,10.2761424 7.27614237,10.5 7,10.5 C6.72385763,10.5 6.5,10.2761424 6.5,10 L6.5,9.1875 C6.5,8.01479372 5.17839605,7 3.5,7 C1.82160395,7 0.5,8.01479372 0.5,9.1875 L0.5,10 C0.5,10.2761424 0.276142375,10.5 0,10.5 C-0.276142375,10.5 -0.5,10.2761424 -0.5,10 L-0.5,9.1875 C-0.5,7.39623093 1.31836394,6 3.5,6 C5.68163606,6 7.5,7.39623093 7.5,9.1875 L7.5,10 Z" id="Shape" fill-rule="nonzero"></path>
                        <path d="M7.03835177,4.95436821 C6.76614817,4.90789443 6.583158,4.64955537 6.62963179,4.37735177 C6.67610557,4.10514817 6.93444463,3.922158 7.20664823,3.96863179 C7.3343374,3.99043238 7.42018973,4 7.5,4 C8.46435763,4 9.25,3.21435763 9.25,2.25 C9.25,1.28564237 8.46435763,0.5 7.5,0.5 C7.41860266,0.5 7.33052444,0.509718371 7.20775475,0.531091233 C6.93570412,0.578452273 6.67676981,0.396305375 6.62940877,0.124254749 C6.58204773,-0.147795877 6.76419462,-0.406730193 7.03624525,-0.454091233 C7.21079239,-0.484477982 7.35146942,-0.5 7.5,-0.5 C9.01664237,-0.5 10.25,0.733357625 10.25,2.25 C10.25,3.76664237 9.01664237,5 7.5,5 C7.35284152,5 7.21687033,4.98484699 7.03835177,4.95436821 Z" id="Shape" fill-rule="nonzero"></path>
                        <path d="M3.5,5 C1.98121694,5 0.75,3.76878306 0.75,2.25 C0.75,0.731216938 1.98121694,-0.5 3.5,-0.5 C5.01878306,-0.5 6.25,0.731216938 6.25,2.25 C6.25,3.76878306 5.01878306,5 3.5,5 Z M3.5,4 C4.46649831,4 5.25,3.21649831 5.25,2.25 C5.25,1.28350169 4.46649831,0.5 3.5,0.5 C2.53350169,0.5 1.75,1.28350169 1.75,2.25 C1.75,3.21649831 2.53350169,4 3.5,4 Z" id="Oval" fill-rule="nonzero"></path>
                    </g>
                </g>
            </g>
        </g>
    </g>
</svg>