<?xml version="1.0" encoding="UTF-8"?>
<svg width="12px" height="12px" viewBox="0 0 12 12" version="1.1" xmlns="http://www.w3.org/2000/svg" xmlns:xlink="http://www.w3.org/1999/xlink">
    <!-- Generator: Sketch 49.3 (51167) - http://www.bohemiancoding.com/sketch -->
    <title>icons/grey/info</title>
    <desc>Created with Sketch.</desc>
    <defs></defs>
    <g id="New-library" stroke="none" stroke-width="1" fill="none" fill-rule="evenodd">
        <g id="01---Automation-Rule-Landing_SO" transform="translate(-718.000000, -258.000000)" fill="#888888">
            <g id="icons/grey/info" transform="translate(718.000000, 258.000000)">
                <g id="info">
                    <path d="M6,12 C2.6862915,12 0,9.3137085 0,6 C0,2.6862915 2.6862915,0 6,0 C9.3137085,0 12,2.6862915 12,6 C12,9.3137085 9.3137085,12 6,12 Z M6,11 C8.76142375,11 11,8.76142375 11,6 C11,3.23857625 8.76142375,1 6,1 C3.23857625,1 1,3.23857625 1,6 C1,8.76142375 3.23857625,11 6,11 Z M5.5,5.5 C5.5,5.22385763 5.72385763,5 6,5 C6.27614237,5 6.5,5.22385763 6.5,5.5 L6.5,9 C6.5,9.27614237 6.27614237,9.5 6,9.5 C5.72385763,9.5 5.5,9.27614237 5.5,9 L5.5,5.5 Z M6.5,3.5 C6.5,3.77614237 6.27614237,4 6,4 C5.72385763,4 5.5,3.77614237 5.5,3.5 L5.5,3.495 C5.5,3.21885763 5.72385763,2.995 6,2.995 C6.27614237,2.995 6.5,3.21885763 6.5,3.495 L6.5,3.5 Z" id="Oval" fill-rule="nonzero"></path>
                </g>
            </g>
        </g>
    </g>
</svg>