<?xml version="1.0" encoding="UTF-8"?>
<svg width="262px" height="228px" viewBox="0 0 262 228" version="1.1" xmlns="http://www.w3.org/2000/svg" xmlns:xlink="http://www.w3.org/1999/xlink">
    <!-- Generator: Sketch 48.1 (47250) - http://www.bohemiancoding.com/sketch -->
    <title>Group</title>
    <desc>Created with Sketch.</desc>
    <defs>
        <polygon id="path-1" points="0.760969942 36.8129369 92 0 92 71 35.6450394 73.0809095"></polygon>
        <path d="M0.429200738,8.28214749 L37.3785906,0.991535443 C64.313823,9.7728007 75.9917663,17.2497662 72.4124208,23.4224319 C64.4437901,37.1645232 60.991052,43.1055187 46.9161485,54.6375209 C35.2443722,64.2005669 19.7487229,48.7487758 0.429200738,8.28214749 Z" id="path-3"></path>
        <path d="M0.493635214,9.76463057 L6.3341991,0.704278515 C51.5424405,7.15734873 75.1258784,13.5663716 77.0845126,19.9313471 C80.1576402,29.9180928 80.0474475,40.6190811 78.7613508,54.2649464 C78.6457506,55.4914984 63.4987435,54.5557856 33.3203294,51.4578081 C20.5103694,40.7290139 13.9337715,35.0418506 13.5905359,34.3963183 C13.2473003,33.7507861 11.6672224,29.39831 8.85030224,21.3388901 L0.493635214,9.76463057 Z" id="path-5"></path>
        <path d="M78.7857451,75.8012158 C82.0489726,75.729111 85.5398259,75.6930586 89.2583049,75.6930586 C94.4668538,78.4927619 100.023312,78.4927619 105.927679,75.6930586 L117.252994,75.8262489 C118.348314,75.8391303 119.229475,76.730715 119.229475,77.8261106 L119.229475,105.252839 L119.229475,116.819007 L119.229475,159.666029 C119.229475,160.770599 118.334044,161.666029 117.229475,161.666029 L78.829921,161.666029 C77.7253515,161.666029 76.829921,160.770599 76.829921,159.666029 C76.829921,159.666029 76.829921,159.666029 76.829921,159.666029 L76.8299242,115.26564" id="path-7"></path>
        <rect id="path-8" x="91.2822555" y="16.7661874" width="42.3995482" height="45.3898615" rx="2"></rect>
    </defs>
    <g id="00---No-rule-splash-page-(sem)" stroke="none" stroke-width="1" fill="none" fill-rule="evenodd" transform="translate(-786.000000, -225.000000)">
        <g id="Group" transform="translate(770.650097, 225.000000)">
            <circle id="Oval-5" fill="#E8E8EC" cx="134.555567" cy="140.346908" r="87.6530922"></circle>
            <g id="Group-6" transform="translate(0.150097, 0.390801)">
                <path d="M128.33939,78.2828682 C127.332859,74.0450419 127.91069,68.6746108 129.229645,62.0117189 C126.68496,60.8548825 122.799116,60.2026004 117.572111,60.0548725 C117.306669,67.0460577 116.702102,72.4883954 114.420092,76.4806464 C117.197331,78.0138769 119.387675,78.8947422 120.991124,79.1232422 C122.56266,79.3471944 125.012082,79.0670697 128.33939,78.2828682 Z" id="Path-5" stroke="#888888" fill="#FFFFFF" stroke-linecap="round" transform="translate(121.824868, 69.626369) rotate(1.000000) translate(-121.824868, -69.626369) "></path>
                <g id="Group-3" transform="translate(59.123356, 121.033089) scale(-1, 1) rotate(34.000000) translate(-59.123356, -121.033089) translate(13.123356, 84.033089)">
                    <mask id="mask-2" fill="white">
                        <use xlink:href="#path-1"></use>
                    </mask>
                    <g id="Rectangle-3"></g>
                    <path d="M63.3722633,38.1773031 L73.1302999,29.9325776 C73.9740277,29.2196981 75.2359072,29.3257716 75.9487867,30.1694994 C76.0480676,30.2870032 76.1334604,30.4155688 76.2032714,30.5526464 L80.124335,38.2518563 C80.6256083,39.2361321 80.2340573,40.4404076 79.2497815,40.9416808 C79.0941589,41.0209365 78.9288258,41.0794675 78.7580007,41.1157804 L66.5536731,43.7100945" id="Path-9" stroke="#AAAAAA" fill="#FFFFFF" mask="url(#mask-2)"></path>
                    <path d="M-34.8141737,15.5419365 C-13.7889553,53.4557358 19.026648,60.8932939 63.6326362,37.8546107 C63.5946445,41.0012547 64.6995079,42.909156 66.9092346,43.8267751 C20.0804122,70.8619719 -16.3114286,62.9269132 -42.3162516,20.0657177" id="Path-6" stroke="#AAAAAA" fill="#FFFFFF" stroke-linecap="round" mask="url(#mask-2)"></path>
                    <path d="M-37.9976727,26.5406411 C-36.9349143,23.2401749 -34.5523289,21.8680503 -30.8499164,22.4242672" id="Path-8" stroke="#AAAAAA" stroke-linecap="round" mask="url(#mask-2)" transform="translate(-34.423795, 24.422290) rotate(-4.000000) translate(34.423795, -24.422290) "></path>
                    <path d="M-33.4968219,32.5025383 C-32.4340635,29.2020721 -30.051478,27.8299474 -26.3490656,28.3861643" id="Path-8" stroke="#AAAAAA" stroke-linecap="round" mask="url(#mask-2)" transform="translate(-29.922944, 30.384187) rotate(-6.000000) translate(29.922944, -30.384187) "></path>
                    <path d="M-28.0214472,38.4588161 C-26.8837634,35.7498666 -24.5770453,34.3953919 -21.1012929,34.3953919" id="Path-8" stroke="#AAAAAA" stroke-linecap="round" mask="url(#mask-2)" transform="translate(-24.561370, 36.427104) rotate(-7.000000) translate(24.561370, -36.427104) "></path>
                    <path d="M-22.5519877,43.592294 C-21.4143039,40.8833446 -19.1075858,39.5288698 -15.6318335,39.5288698" id="Path-8" stroke="#AAAAAA" stroke-linecap="round" mask="url(#mask-2)" transform="translate(-19.091911, 41.560582) rotate(-13.000000) translate(19.091911, -41.560582) "></path>
                    <path d="M-15.7001812,48.6686251 C-14.1261927,46.1240547 -11.8194746,44.76958 -8.78002695,44.6052009" id="Path-8" stroke="#AAAAAA" stroke-linecap="round" mask="url(#mask-2)" transform="translate(-12.240104, 46.636913) rotate(-23.000000) translate(12.240104, -46.636913) "></path>
                    <path d="M-8.09102901,52.504881 C-6.51704051,49.9603106 -4.21032242,48.6058358 -1.17087474,48.4414568" id="Path-8" stroke="#AAAAAA" stroke-linecap="round" mask="url(#mask-2)" transform="translate(-4.630952, 50.473169) rotate(-29.000000) translate(4.630952, -50.473169) "></path>
                    <path d="M1.22655588,55.8311908 C2.80054438,53.2866204 5.10726247,51.9321456 8.14671016,51.7677665" id="Path-8" stroke="#AAAAAA" stroke-linecap="round" mask="url(#mask-2)" transform="translate(4.686633, 53.799479) rotate(-40.000000) translate(-4.686633, -53.799479) "></path>
                    <path d="M12.4244789,57.5566721 C14.2111391,54.6024807 16.6241931,53.0431955 19.6636407,52.8788164" id="Path-8" stroke="#AAAAAA" stroke-linecap="round" mask="url(#mask-2)" transform="translate(16.044060, 55.217744) rotate(-55.000000) translate(-16.044060, -55.217744) "></path>
                    <path d="M24.7234385,56.7726292 C26.2695466,53.7591216 28.5623244,52.1701783 31.6017721,52.0057992" id="Path-8" stroke="#AAAAAA" stroke-linecap="round" mask="url(#mask-2)" transform="translate(28.162605, 54.389214) rotate(-62.000000) translate(-28.162605, -54.389214) "></path>
                    <path d="M37.2952753,54.2299587 C38.0360742,50.8671267 39.9261974,49.1035212 42.9656451,48.9391421" id="Path-8" stroke="#AAAAAA" stroke-linecap="round" mask="url(#mask-2)" transform="translate(40.130460, 51.584550) rotate(-62.000000) translate(-40.130460, -51.584550) "></path>
                    <path d="M47.325948,50.8817334 C47.4807128,47.9458412 48.9671256,46.1108007 51.7851862,45.3766119" id="Path-8" stroke="#AAAAAA" stroke-linecap="round" mask="url(#mask-2)" transform="translate(49.555567, 48.129173) rotate(-62.000000) translate(-49.555567, -48.129173) "></path>
                    <path d="M58.4762556,46.0526047 C58.2490614,43.6707357 59.4149363,41.7994939 61.9738802,40.4388793" id="Path-8" stroke="#AAAAAA" stroke-linecap="round" mask="url(#mask-2)" transform="translate(60.211173, 43.245742) rotate(-62.000000) translate(-60.211173, -43.245742) "></path>
                </g>
                <g id="Group-3" transform="translate(93.457289, 186.023226) scale(-1, 1) rotate(3.000000) translate(-93.457289, -186.023226) translate(56.457289, 157.023226)">
                    <mask id="mask-4" fill="white">
                        <use xlink:href="#path-3"></use>
                    </mask>
                    <g id="Rectangle-3"></g>
                    <path d="M24.1858263,0.541936512 C45.2110447,38.4557358 78.026648,45.8932939 122.632636,22.8546107 C122.594645,26.0012547 123.699508,27.909156 125.859271,28.8708936 C79.0804122,55.8619719 42.6885714,47.9269132 16.6837484,5.06571766" id="Path-6" stroke="#888888" fill="#FFFFFF" stroke-linecap="round" mask="url(#mask-4)"></path>
                    <path d="M21.0023273,11.5406411 C22.0650857,8.24017494 24.4476711,6.86805027 28.1500836,7.42426715" id="Path-8" stroke="#888888" stroke-linecap="round" mask="url(#mask-4)" transform="translate(24.576205, 9.422290) rotate(-4.000000) translate(-24.576205, -9.422290) "></path>
                    <path d="M25.5031781,17.5025383 C26.5659365,14.2020721 28.948522,12.8299474 32.6509344,13.3861643" id="Path-8" stroke="#888888" stroke-linecap="round" mask="url(#mask-4)" transform="translate(29.077056, 15.384187) rotate(-6.000000) translate(-29.077056, -15.384187) "></path>
                    <path d="M30.9785528,23.4588161 C32.1162366,20.7498666 34.4229547,19.3953919 37.8987071,19.3953919" id="Path-8" stroke="#888888" stroke-linecap="round" mask="url(#mask-4)" transform="translate(34.438630, 21.427104) rotate(-7.000000) translate(-34.438630, -21.427104) "></path>
                    <path d="M36.4480123,28.592294 C37.5856961,25.8833446 39.8924142,24.5288698 43.3681665,24.5288698" id="Path-8" stroke="#888888" stroke-linecap="round" mask="url(#mask-4)" transform="translate(39.908089, 26.560582) rotate(-13.000000) translate(-39.908089, -26.560582) "></path>
                    <path d="M43.2998188,33.6686251 C44.8738073,31.1240547 47.1805254,29.76958 50.2199731,29.6052009" id="Path-8" stroke="#888888" stroke-linecap="round" mask="url(#mask-4)" transform="translate(46.759896, 31.636913) rotate(-23.000000) translate(-46.759896, -31.636913) "></path>
                    <path d="M50.908971,37.504881 C52.4829595,34.9603106 54.7896776,33.6058358 57.8291253,33.4414568" id="Path-8" stroke="#888888" stroke-linecap="round" mask="url(#mask-4)" transform="translate(54.369048, 35.473169) rotate(-29.000000) translate(-54.369048, -35.473169) "></path>
                    <path d="M60.2265559,40.8311908 C61.8005444,38.2866204 64.1072625,36.9321456 67.1467102,36.7677665" id="Path-8" stroke="#888888" stroke-linecap="round" mask="url(#mask-4)" transform="translate(63.686633, 38.799479) rotate(-40.000000) translate(-63.686633, -38.799479) "></path>
                    <path d="M71.4244789,42.5566721 C73.2111391,39.6024807 75.6241931,38.0431955 78.6636407,37.8788164" id="Path-8" stroke="#888888" stroke-linecap="round" mask="url(#mask-4)" transform="translate(75.044060, 40.217744) rotate(-55.000000) translate(-75.044060, -40.217744) "></path>
                    <path d="M83.7234385,41.7726292 C85.2695466,38.7591216 87.5623244,37.1701783 90.6017721,37.0057992" id="Path-8" stroke="#888888" stroke-linecap="round" mask="url(#mask-4)" transform="translate(87.162605, 39.389214) rotate(-62.000000) translate(-87.162605, -39.389214) "></path>
                    <path d="M96.2952753,39.2299587 C97.0360742,35.8671267 98.9261974,34.1035212 101.965645,33.9391421" id="Path-8" stroke="#888888" stroke-linecap="round" mask="url(#mask-4)" transform="translate(99.130460, 36.584550) rotate(-62.000000) translate(-99.130460, -36.584550) "></path>
                    <path d="M106.325948,35.8817334 C106.480713,32.9458412 107.967126,31.1108007 110.785186,30.3766119" id="Path-8" stroke="#888888" stroke-linecap="round" mask="url(#mask-4)" transform="translate(108.555567, 33.129173) rotate(-62.000000) translate(-108.555567, -33.129173) "></path>
                </g>
                <g id="Group-3" transform="translate(146.679038, 187.803360) scale(-1, 1) rotate(-242.000000) translate(-146.679038, -187.803360) translate(106.679038, 160.303360)">
                    <mask id="mask-6" fill="white">
                        <use xlink:href="#path-5"></use>
                    </mask>
                    <g id="Rectangle-3"></g>
                    <path d="M3.18582629,-1.45806349 C24.2110447,36.4557358 57.026648,43.8932939 101.632636,20.8546107 C101.594645,24.0012547 102.699508,25.909156 104.859271,26.8708936 C58.0804122,53.8619719 21.6885714,45.9269132 -4.31625158,3.06571766 C-3.63421899,-0.318759786 -1.14413071,-1.83895779 3.15008361,-1.57573285" id="Path-6" stroke="#888888" fill="#FFFFFF" stroke-linecap="round" mask="url(#mask-6)"></path>
                    <path d="M0.00232730382,9.54064114 C1.0650857,6.24017494 3.44767114,4.86805027 7.15008361,5.42426715" id="Path-8" stroke="#888888" stroke-linecap="round" mask="url(#mask-6)" transform="translate(3.576205, 7.422290) rotate(-4.000000) translate(-3.576205, -7.422290) "></path>
                    <path d="M4.50317813,15.5025383 C5.56593653,12.2020721 7.94852197,10.8299474 11.6509344,11.3861643" id="Path-8" stroke="#888888" stroke-linecap="round" mask="url(#mask-6)" transform="translate(8.077056, 13.384187) rotate(-6.000000) translate(-8.077056, -13.384187) "></path>
                    <path d="M9.97855279,21.4588161 C11.1162366,18.7498666 13.4229547,17.3953919 16.8987071,17.3953919" id="Path-8" stroke="#888888" stroke-linecap="round" mask="url(#mask-6)" transform="translate(13.438630, 19.427104) rotate(-7.000000) translate(-13.438630, -19.427104) "></path>
                    <path d="M15.4480123,26.592294 C16.5856961,23.8833446 18.8924142,22.5288698 22.3681665,22.5288698" id="Path-8" stroke="#888888" stroke-linecap="round" mask="url(#mask-6)" transform="translate(18.908089, 24.560582) rotate(-13.000000) translate(-18.908089, -24.560582) "></path>
                    <path d="M22.2998188,31.6686251 C23.8738073,29.1240547 26.1805254,27.76958 29.2199731,27.6052009" id="Path-8" stroke="#888888" stroke-linecap="round" mask="url(#mask-6)" transform="translate(25.759896, 29.636913) rotate(-23.000000) translate(-25.759896, -29.636913) "></path>
                    <path d="M29.908971,35.504881 C31.4829595,32.9603106 33.7896776,31.6058358 36.8291253,31.4414568" id="Path-8" stroke="#888888" stroke-linecap="round" mask="url(#mask-6)" transform="translate(33.369048, 33.473169) rotate(-29.000000) translate(-33.369048, -33.473169) "></path>
                    <path d="M39.2265559,38.8311908 C40.8005444,36.2866204 43.1072625,34.9321456 46.1467102,34.7677665" id="Path-8" stroke="#888888" stroke-linecap="round" mask="url(#mask-6)" transform="translate(42.686633, 36.799479) rotate(-40.000000) translate(-42.686633, -36.799479) "></path>
                    <path d="M50.4244789,40.5566721 C52.2111391,37.6024807 54.6241931,36.0431955 57.6636407,35.8788164" id="Path-8" stroke="#888888" stroke-linecap="round" mask="url(#mask-6)" transform="translate(54.044060, 38.217744) rotate(-55.000000) translate(-54.044060, -38.217744) "></path>
                    <path d="M62.7234385,39.7726292 C64.2695466,36.7591216 66.5623244,35.1701783 69.6017721,35.0057992" id="Path-8" stroke="#888888" stroke-linecap="round" mask="url(#mask-6)" transform="translate(66.162605, 37.389214) rotate(-62.000000) translate(-66.162605, -37.389214) "></path>
                    <path d="M75.2952753,37.2299587 C76.0360742,33.8671267 77.9261974,32.1035212 80.9656451,31.9391421" id="Path-8" stroke="#888888" stroke-linecap="round" mask="url(#mask-6)" transform="translate(78.130460, 34.584550) rotate(-62.000000) translate(-78.130460, -34.584550) "></path>
                    <path d="M85.325948,33.8817334 C85.4807128,30.9458412 86.9671256,29.1108007 89.7851862,28.3766119" id="Path-8" stroke="#888888" stroke-linecap="round" mask="url(#mask-6)" transform="translate(87.555567, 31.129173) rotate(-62.000000) translate(-87.555567, -31.129173) "></path>
                </g>
                <g id="Group-5" transform="translate(16.000000, 0.000000)">
                    <g id="Rectangle-12" transform="translate(98.029698, 118.679544) scale(-1, 1) rotate(-369.000000) translate(-98.029698, -118.679544) ">
                        <use fill="#FFFFFF" fill-rule="evenodd" xlink:href="#path-7"></use>
                        <path stroke="#888888" stroke-width="1" d="M79.2620738,76.2910896 L77.3299242,115.26564 L77.329921,159.666029 C77.329921,160.494457 78.0014939,161.166029 78.829921,161.166029 L117.229475,161.166029 C118.057902,161.166029 118.729475,160.494456 118.729475,159.666029 L118.729475,77.8261106 C118.729475,77.0045639 118.068604,76.3358754 117.247114,76.3262143 L106.03686,76.1943772 C100.073634,78.9909359 94.4229813,78.9941493 89.1332957,76.1930723 C85.6410823,76.1938333 82.3506621,76.2265082 79.2620736,76.2910897 Z"></path>
                    </g>
                    <path d="M204.389723,112.370315 L214.147759,104.12559 C214.991487,103.41271 216.253367,103.518784 216.966246,104.362511 C217.065527,104.480015 217.15092,104.608581 217.220731,104.745658 L221.141794,112.444868 C221.643068,113.429144 221.251517,114.63342 220.267241,115.134693 C220.111618,115.213948 219.946285,115.272479 219.77546,115.308792 L207.571133,117.903106" id="Path-9" stroke="#888888" fill="#FFFFFF"></path>
                    <path d="M204.650096,112.047623 C160.044107,135.086306 127.228504,127.648748 106.167543,89.6172791 C101.873329,89.3540542 99.3832404,90.8742522 98.6972782,94.1778731 C124.706031,137.119925 161.097872,145.054984 207.87673,118.063906 C205.716967,117.102168 204.612104,115.194267 204.612104,112.296083" id="Path-6" stroke="#888888" fill="#FFFFFF" stroke-linecap="round"></path>
                    <path d="M103.019787,100.733653 C104.082545,97.4331869 106.465131,96.0610622 110.167543,96.6172791" id="Path-8" stroke="#888888" stroke-linecap="round" transform="translate(106.593665, 98.615302) rotate(-4.000000) translate(-106.593665, -98.615302) "></path>
                    <path d="M107.520638,106.69555 C108.583396,103.395084 110.965981,102.022959 114.668394,102.579176" id="Path-8" stroke="#888888" stroke-linecap="round" transform="translate(111.094516, 104.577199) rotate(-6.000000) translate(-111.094516, -104.577199) "></path>
                    <path d="M112.996012,112.651828 C114.133696,109.942879 116.440414,108.588404 119.916166,108.588404" id="Path-8" stroke="#888888" stroke-linecap="round" transform="translate(116.456089, 110.620116) rotate(-7.000000) translate(-116.456089, -110.620116) "></path>
                    <path d="M118.465472,117.785306 C119.603156,115.076357 121.909874,113.721882 125.385626,113.721882" id="Path-8" stroke="#888888" stroke-linecap="round" transform="translate(121.925549, 115.753594) rotate(-13.000000) translate(-121.925549, -115.753594) "></path>
                    <path d="M125.317278,122.861637 C126.891267,120.317067 129.197985,118.962592 132.237432,118.798213" id="Path-8" stroke="#888888" stroke-linecap="round" transform="translate(128.777355, 120.829925) rotate(-23.000000) translate(-128.777355, -120.829925) "></path>
                    <path d="M132.92643,126.697893 C134.500419,124.153323 136.807137,122.798848 139.846585,122.634469" id="Path-8" stroke="#888888" stroke-linecap="round" transform="translate(136.386508, 124.666181) rotate(-29.000000) translate(-136.386508, -124.666181) "></path>
                    <path d="M142.244015,130.024203 C143.818004,127.479632 146.124722,126.125158 149.16417,125.960778" id="Path-8" stroke="#888888" stroke-linecap="round" transform="translate(145.704092, 127.992491) rotate(-40.000000) translate(-145.704092, -127.992491) "></path>
                    <path d="M153.441938,131.749684 C155.228599,128.795493 157.641652,127.236207 160.6811,127.071828" id="Path-8" stroke="#888888" stroke-linecap="round" transform="translate(157.061519, 129.410756) rotate(-55.000000) translate(-157.061519, -129.410756) "></path>
                    <path d="M165.740898,130.965641 C167.287006,127.952134 169.579784,126.36319 172.619232,126.198811" id="Path-8" stroke="#888888" stroke-linecap="round" transform="translate(169.180065, 128.582226) rotate(-62.000000) translate(-169.180065, -128.582226) "></path>
                    <path d="M178.312735,128.422971 C179.053534,125.060139 180.943657,123.296533 183.983105,123.132154" id="Path-8" stroke="#888888" stroke-linecap="round" transform="translate(181.147920, 125.777562) rotate(-62.000000) translate(-181.147920, -125.777562) "></path>
                    <path d="M188.343407,125.074745 C188.498172,122.138853 189.984585,120.303813 192.802646,119.569624" id="Path-8" stroke="#888888" stroke-linecap="round" transform="translate(190.573027, 122.322185) rotate(-62.000000) translate(-190.573027, -122.322185) "></path>
                    <path d="M199.493715,120.245617 C199.266521,117.863748 200.432396,115.992506 202.99134,114.631891" id="Path-8" stroke="#888888" stroke-linecap="round" transform="translate(201.228633, 117.438754) rotate(-62.000000) translate(-201.228633, -117.438754) "></path>
                    <path d="M213.028902,105.092343 L228.193769,67.4701067" id="Line-7" stroke="#888888" stroke-linecap="round"></path>
                    <path d="M206.080006,121.605561 L207.676197,117.906447" id="Line-7-Copy-2" stroke="#888888" stroke-linecap="round"></path>
                    <path d="M221.640942,78.6494708 L226.53172,66.8927203" id="Line-7" stroke="#888888" stroke-linecap="round"></path>
                    <path d="M220.545017,76.537873 L228.290671,77.8156032" id="Line-8" stroke="#888888" stroke-linecap="round"></path>
                    <path d="M221.546829,74.5495713 L229.292482,75.8273014" id="Line-8" stroke="#888888" stroke-linecap="round"></path>
                    <path d="M222.274049,72.4845839 L230.019703,73.7623141" id="Line-8-Copy" stroke="#888888" stroke-linecap="round"></path>
                    <path d="M223.024648,70.401439 L230.770301,71.6791692" id="Line-8-Copy-2" stroke="#888888" stroke-linecap="round"></path>
                    <path d="M223.738646,68.4285797 L231.4843,69.7063099" id="Line-8-Copy-3" stroke="#888888" stroke-linecap="round"></path>
                    <path d="M225.534375,79.3707512 L230.425154,67.6140006" id="Line-7-Copy" stroke="#888888" stroke-linecap="round"></path>
                    <path d="M225.678792,66.6445039 C224.98055,66.5299664 224.297221,66.9189493 224.039237,67.5778162 L220.388996,76.9001908 C220.350565,76.9983413 220.322586,77.1002693 220.305523,77.2042855 C220.171423,78.0217869 220.725429,78.7932126 221.54293,78.9273131 L226.506487,79.74152 C227.204729,79.8560575 227.888058,79.4670746 228.146041,78.8082077 L231.796283,69.4858331 C231.834714,69.3876826 231.862693,69.2857546 231.879755,69.1817384 C232.013856,68.364237 231.45985,67.5928113 230.642349,67.4587108 L225.678792,66.6445039 Z" id="Rectangle-18" stroke="#888888"></path>
                    <path d="M120.524857,108.980061 L124.848481,81.9576194 C125.022994,80.8669228 124.28028,79.841268 123.189583,79.6667552 C123.185494,79.6661009 123.181403,79.6654593 123.17731,79.6648304 L119.498651,79.0996541" id="Line-12" stroke="#888888" stroke-linecap="round"></path>
                    <path d="" id="Path-2" stroke="#888888"></path>
                    <path d="M71.7061788,152.500114 L111.706179,158.500114" id="Line-6" stroke="#888888" stroke-linecap="square" transform="translate(91.706179, 155.500114) rotate(0.500000) translate(-91.706179, -155.500114) "></path>
                    <path d="M72.7497734,147.509031 L112.749773,153.509031" id="Line-6" stroke="#888888" stroke-linecap="square" transform="translate(92.749773, 150.509031) rotate(0.500000) translate(-92.749773, -150.509031) "></path>
                    <path d="M73.8020945,141.517986 L113.802095,147.517986" id="Line-6" stroke="#888888" stroke-linecap="square" transform="translate(93.802095, 144.517986) rotate(0.500000) translate(-93.802095, -144.517986) "></path>
                    <path d="M71.6799992,155.5 L111.679999,161.5" id="Line-6" stroke="#888888" stroke-linecap="square" transform="translate(91.679999, 158.500000) rotate(0.500000) translate(-91.679999, -158.500000) "></path>
                    <path d="M222.186518,65.9863091 L199.186518,65.9863091" id="Line-9" stroke="#888888" stroke-linecap="round"></path>
                    <path d="M219.760759,70.9863091 C213.842144,70.9863091 210.882837,70.9863091 210.882837,70.9863091" id="Line-9" stroke="#888888" stroke-linecap="round"></path>
                    <path d="M209.195987,71.0383646 L204.72101,71.0383646" id="Line-9" stroke="#888888" stroke-linecap="round"></path>
                    <path d="M80.8663579,74.1375518 L57.8663579,74.1375518" id="Line-9" stroke="#888888" stroke-linecap="round"></path>
                    <path d="M79.6699876,79.235769 C73.7513729,79.235769 70.7920655,79.235769 70.7920655,79.235769" id="Line-9" stroke="#888888" stroke-linecap="round"></path>
                    <path d="M69.1052154,79.2878244 L64.6302388,79.2878244" id="Line-9" stroke="#888888" stroke-linecap="round"></path>
                    <path d="M100.826509,66.8865 C105.759279,68.621775 109.620784,69.4053793 112.411025,69.2373129" id="Path-7" stroke="#888888" transform="translate(106.618767, 68.073037) rotate(-4.000000) translate(-106.618767, -68.073037) "></path>
                    <path d="M101.475291,61.8289233 C106.408061,63.5641983 110.269566,64.3478025 113.059807,64.1797361" id="Path-7" stroke="#888888" transform="translate(107.267549, 63.015460) rotate(-4.000000) translate(-107.267549, -63.015460) "></path>
                    <path d="M100.177727,71.9440768 C105.110497,73.6793517 108.972002,74.462956 111.762243,74.2948896" id="Path-7" stroke="#888888" transform="translate(105.969985, 73.130613) rotate(-4.000000) translate(-105.969985, -73.130613) "></path>
                    <g id="Rectangle-12" transform="translate(112.482030, 39.461118) rotate(-351.000000) translate(-112.482030, -39.461118) ">
                        <use fill="#FFFFFF" fill-rule="evenodd" xlink:href="#path-8"></use>
                        <rect stroke="#888888" stroke-width="1" x="91.7822555" y="17.2661874" width="41.3995482" height="44.3898615" rx="2"></rect>
                    </g>
                    <circle id="Oval" stroke="#888888" transform="translate(112.674295, 38.247204) rotate(-351.000000) translate(-112.674295, -38.247204) " cx="112.674295" cy="38.2472038" r="7.37383447"></circle>
                    <rect id="Rectangle-17" stroke="#888888" transform="translate(135.388587, 36.245482) rotate(-351.000000) translate(-135.388587, -36.245482) " x="134.352372" y="31.2151057" width="2.07243103" height="10.0607517"></rect>
                    <rect id="Rectangle-17" stroke="#888888" transform="translate(137.816271, 36.629989) rotate(-351.000000) translate(-137.816271, -36.629989) " x="136.780055" y="32.8285854" width="2.07243103" height="7.60280688"></rect>
                    <path d="M117.114032,17.4325938 L117.114032,5.12751713" id="Line-2" stroke="#888888" stroke-linecap="square" transform="translate(117.114032, 11.287732) rotate(-351.000000) translate(-117.114032, -11.287732) "></path>
                    <circle id="Oval-3" stroke="#888888" transform="translate(118.459808, 2.790840) rotate(-351.000000) translate(-118.459808, -2.790840) " cx="118.459808" cy="2.7908397" r="2.15070172"></circle>
                    <path d="M114.331857,2.73878422 C110.160776,2.73878422 108.075235,2.73878422 108.075235,2.73878422" id="Line-9-Copy" stroke="#888888" stroke-linecap="round"></path>
                    <path d="M105.618767,2.7908397 L103.381279,2.7908397" id="Line-9-Copy-2" stroke="#888888" stroke-linecap="round"></path>
                    <path d="M11.3318568,134.738784 C7.16077576,134.738784 5.07523524,134.738784 5.07523524,134.738784" id="Line-9-Copy" stroke="#AAAAAA" stroke-linecap="round"></path>
                    <path d="M2.618767,134.79084 L0.381278696,134.79084" id="Line-9-Copy-2" stroke="#AAAAAA" stroke-linecap="round"></path>
                    <path d="M254.279369,77.1226499 L259.994944,77.1226499" id="Line-10" stroke="#888888" stroke-linecap="round"></path>
                    <path d="M258.060128,76.9433535 L259.280497,74.9793094" id="Line-11" stroke="#888888" stroke-linecap="round"></path>
                    <path d="M256.867044,76.9800929 L258.087413,75.0160488" id="Line-11" stroke="#888888" stroke-linecap="round" transform="translate(257.477229, 75.998071) scale(-1, 1) translate(-257.477229, -75.998071) "></path>
                    <path d="M251.944466,77.1803361 L250.825722,77.1803361" id="Line-9-Copy-2" stroke="#AAAAAA" stroke-linecap="round"></path>
                    <path d="M248.944466,77.1803361 L248.444466,77.1803361" id="Line-9-Copy-2" stroke="#AAAAAA" stroke-linecap="round"></path>
                </g>
            </g>
        </g>
    </g>
</svg>