<?xml version="1.0" encoding="UTF-8"?>
<svg width="12px" height="11px" viewBox="0 0 12 11" version="1.1" xmlns="http://www.w3.org/2000/svg" xmlns:xlink="http://www.w3.org/1999/xlink">
    <!-- Generator: Sketch 49.3 (51167) - http://www.bohemiancoding.com/sketch -->
    <title>icons/grey/program</title>
    <desc>Created with Sketch.</desc>
    <defs></defs>
    <g id="Symbols" stroke="none" stroke-width="1" fill="none" fill-rule="evenodd">
        <g id="Condition" transform="translate(-379.000000, -276.000000)" fill="#888888">
            <g id="Group-4" transform="translate(43.000000, 214.000000)">
                <g id="Group-2-Copy-3" transform="translate(216.000000, 59.000000)">
                    <g id="icons/grey/program" transform="translate(120.000000, 3.000000)">
                        <g id="folder" transform="translate(0.000000, 0.500000)">
                            <path d="M6.20710678,1.5 L10.5,1.5 C11.3284271,1.5 12,2.17157288 12,3 L12,9 C12,9.82842712 11.3284271,10.5 10.5,10.5 L1.5,10.5 C0.671572875,10.5 1.66533454e-16,9.82842712 0,9 L0,1.5 C1.66533454e-16,0.671572875 0.671572875,0 1.5,0 L4.5,0 C4.63260824,0 4.7597852,0.0526784202 4.85355339,0.146446609 L6.20710678,1.5 Z M4.29289322,1 L1.5,1 C1.22385763,1 1,1.22385763 1,1.5 L1,9 C1,9.27614237 1.22385763,9.5 1.5,9.5 L10.5,9.5 C10.7761424,9.5 11,9.27614237 11,9 L11,3 C11,2.72385763 10.7761424,2.5 10.5,2.5 L6,2.5 C5.86739176,2.5 5.7402148,2.44732158 5.64644661,2.35355339 L4.29289322,1 Z" id="Shape" fill-rule="nonzero"></path>
                        </g>
                    </g>
                </g>
            </g>
        </g>
    </g>
</svg>