<?xml version="1.0" encoding="UTF-8"?>
<svg width="61px" height="61px" viewBox="0 0 61 61" version="1.1" xmlns="http://www.w3.org/2000/svg" xmlns:xlink="http://www.w3.org/1999/xlink">
    <!-- Generator: Sketch 49.3 (51167) - http://www.bohemiancoding.com/sketch -->
    <title>Shape</title>
    <desc>Created with Sketch.</desc>
    <defs></defs>
    <g id="Page-1" stroke="none" stroke-width="1" fill="none" fill-rule="evenodd">
        <g id="Icons-60px" transform="translate(-6.000000, -1432.000000)" fill="#231F20" fill-rule="nonzero">
            <g id="Group" transform="translate(6.000000, 1432.000000)">
                <path d="M57.581933,37.6038534 L21.5889665,2 L2,2 L2,21.5889665 L37.6038534,57.581933 L57.581933,37.6038534 Z M37.5961466,60.418067 L0,22.4110335 L0,0 L22.4110335,0 L60.418067,37.5961466 L37.5961466,60.418067 Z M13.6,19.6 C10.2862915,19.6 7.6,16.9137085 7.6,13.6 C7.6,10.2862915 10.2862915,7.6 13.6,7.6 C16.9137085,7.6 19.6,10.2862915 19.6,13.6 C19.6,16.9137085 16.9137085,19.6 13.6,19.6 Z M13.6,17.6 C15.809139,17.6 17.6,15.809139 17.6,13.6 C17.6,11.390861 15.809139,9.6 13.6,9.6 C11.390861,9.6 9.6,11.390861 9.6,13.6 C9.6,15.809139 11.390861,17.6 13.6,17.6 Z" id="Shape"></path>
            </g>
        </g>
    </g>
</svg>